<svg xmlns="http://www.w3.org/2000/svg" viewBox="0 0 40 40" width="32px" height="32px"><path d="M 18.097 2.289 C 18.693 0.441 21.307 0.441 21.903 2.289 L 25.136 12.312 C 25.403 13.14 26.174 13.7 27.044 13.698 L 37.575 13.675 C 39.517 13.671 40.325 16.158 38.751 17.296 L 30.218 23.467 C 29.513 23.977 29.219 24.884 29.489 25.71 L 32.765 35.719 C 33.37 37.565 31.254 39.101 29.686 37.957 L 21.179 31.748 C 20.477 31.235 19.523 31.235 18.821 31.748 L 10.314 37.957 C 8.746 39.101 6.63 37.565 7.235 35.719 L 10.511 25.71 C 10.781 24.884 10.487 23.977 9.782 23.467 L 1.249 17.296 C -0.325 16.158 0.483 13.671 2.425 13.675 L 12.956 13.698 C 13.826 13.7 14.597 13.14 14.864 12.312 Z" fill="rgb(0, 0, 0)"></path></svg>