<svg xmlns="http://www.w3.org/2000/svg" viewBox="0 0 256 256" focusable="false" color="var(--token-2007957d-a074-4c0c-8a33-8d85ed1ba0fd, rgb(0, 0, 0))" style="user-select: none; width: 100%; height: 100%; display: inline-block; fill: var(--token-2007957d-a074-4c0c-8a33-8d85ed1ba0fd, rgb(0, 0, 0)); color: var(--token-2007957d-a074-4c0c-8a33-8d85ed1ba0fd, rgb(0, 0, 0)); flex-shrink: 0;"><g color="var(--token-2007957d-a074-4c0c-8a33-8d85ed1ba0fd, rgb(0, 0, 0))" weight="fill"><path d="M224,120v16a8,8,0,0,1-8,8H40a8,8,0,0,1-8-8V120a8,8,0,0,1,8-8H216A8,8,0,0,1,224,120Zm-8,56H40a8,8,0,0,0-8,8v16a8,8,0,0,0,8,8H216a8,8,0,0,0,8-8V184A8,8,0,0,0,216,176Zm0-128H40a8,8,0,0,0-8,8V72a8,8,0,0,0,8,8H216a8,8,0,0,0,8-8V56A8,8,0,0,0,216,48Z"></path></g></svg>