<svg xmlns="http://www.w3.org/2000/svg" viewBox="0 0 256 256" focusable="false" color="var(--token-f8dc39cc-9b31-4d20-8063-4556a3d8afa9, rgb(255, 255, 255))" style="user-select: none; width: 100%; height: 100%; display: inline-block; fill: var(--token-f8dc39cc-9b31-4d20-8063-4556a3d8afa9, rgb(255, 255, 255)); color: var(--token-f8dc39cc-9b31-4d20-8063-4556a3d8afa9, rgb(255, 255, 255)); flex-shrink: 0;"><g color="var(--token-f8dc39cc-9b31-4d20-8063-4556a3d8afa9, rgb(255, 255, 255))" weight="fill"><path d="M224,48H32A16,16,0,0,0,16,64V192a16,16,0,0,0,16,16H224a16,16,0,0,0,16-16V64A16,16,0,0,0,224,48ZM80,160a8,8,0,0,1-5.66-2.34l-24-24a8,8,0,0,1,11.32-11.32L80,140.69l50.34-50.35a8,8,0,0,1,11.32,11.32l-56,56A8,8,0,0,1,80,160Zm133.66-58.34-56,56a8,8,0,0,1-11.32,0l-16-16a8,8,0,0,1,11.32-11.32L152,140.69l50.34-50.35a8,8,0,0,1,11.32,11.32Z"></path></g></svg>
