<svg xmlns="http://www.w3.org/2000/svg" viewBox="0 0 256 256" focusable="false" color="var(--token-f8dc39cc-9b31-4d20-8063-4556a3d8afa9, rgb(255, 255, 255))" style="user-select: none; width: 100%; height: 100%; display: inline-block; fill: var(--token-f8dc39cc-9b31-4d20-8063-4556a3d8afa9, rgb(255, 255, 255)); color: var(--token-f8dc39cc-9b31-4d20-8063-4556a3d8afa9, rgb(255, 255, 255)); flex-shrink: 0;"><g color="var(--token-f8dc39cc-9b31-4d20-8063-4556a3d8afa9, rgb(255, 255, 255))" weight="fill"><path d="M247.31,124.76c-.35-.79-8.82-19.58-27.65-38.41C194.57,61.26,162.88,48,128,48S61.43,61.26,36.34,86.35C17.51,105.18,9,124,8.69,124.76a8,8,0,0,0,0,6.5c.35.79,8.82,19.57,27.65,38.4C61.43,194.74,93.12,208,128,208s66.57-13.26,91.66-38.34c18.83-18.83,27.3-37.61,27.65-38.4A8,8,0,0,0,247.31,124.76ZM128,168a40,40,0,1,1,40-40A40,40,0,0,1,128,168Z"></path></g></svg>