<svg xmlns="http://www.w3.org/2000/svg" viewBox="0 0 256 256" focusable="false" color="var(--token-f8dc39cc-9b31-4d20-8063-4556a3d8afa9, rgb(255, 255, 255))" style="user-select: none; width: 100%; height: 100%; display: inline-block; fill: var(--token-f8dc39cc-9b31-4d20-8063-4556a3d8afa9, rgb(255, 255, 255)); color: var(--token-f8dc39cc-9b31-4d20-8063-4556a3d8afa9, rgb(255, 255, 255)); flex-shrink: 0;"><g color="var(--token-f8dc39cc-9b31-4d20-8063-4556a3d8afa9, rgb(255, 255, 255))" weight="fill"><path d="M128,40a96,96,0,1,0,96,96A96.11,96.11,0,0,0,128,40Zm45.66,61.66-40,40a8,8,0,0,1-11.32-11.32l40-40a8,8,0,0,1,11.32,11.32ZM96,16a8,8,0,0,1,8-8h48a8,8,0,0,1,0,16H104A8,8,0,0,1,96,16Z"></path></g></svg>