<svg xmlns="http://www.w3.org/2000/svg" viewBox="0 0 256 256" focusable="false" color="var(--token-169d4d1c-fd2c-4113-998c-38e9976aae57, rgb(0, 0, 0))" style="user-select: none; width: 100%; height: 100%; display: inline-block; fill: var(--token-169d4d1c-fd2c-4113-998c-38e9976aae57, rgb(0, 0, 0)); color: var(--token-169d4d1c-fd2c-4113-998c-38e9976aae57, rgb(0, 0, 0)); flex-shrink: 0;"><g color="var(--token-169d4d1c-fd2c-4113-998c-38e9976aae57, rgb(0, 0, 0))" weight="fill"><path d="M128,24A104,104,0,1,0,232,128,104.11,104.11,0,0,0,128,24ZM96,128a32,32,0,1,1,32,32A32,32,0,0,1,96,128Zm88.28-67.6L155.79,88.9a47.84,47.84,0,0,0-55.58,0L71.72,60.4a87.83,87.83,0,0,1,112.56,0ZM71.72,195.6l28.49-28.5a47.84,47.84,0,0,0,55.58,0l28.49,28.5a87.83,87.83,0,0,1-112.56,0Z"></path></g></svg>